<svg id="Layer_1" enable-background="new 0 0 512 512" height="512" viewBox="0 0 512 512" width="512" xmlns="http://www.w3.org/2000/svg"><g><path d="m478.78 330.18c0 93.57-5.11 171.26-5.16 172.03-.25 3.83-3.36 6.85-7.2 7-.24.01-8.21.31-21.91.7-28.24.83-80.81 2.09-140.16 2.09-88.16 0-161.35-2.77-162.08-2.79-3.83-.15-6.94-3.17-7.19-7-.01-.17-1.16-17.41-2.35-45-.09-2.02.65-3.99 2.03-5.46l282.09-299.55c1.46-1.55 3.52-2.41 5.64-2.35 10.32.25 19.16.5 26.15.71 11.24.35 17.69.59 17.79.6 3.83.14 6.94 3.16 7.19 6.99.05.77 5.16 78.46 5.16 172.03z" fill="#ff8f8f"/><path d="m430.78 232.99c0 120.91-5.27 221.28-5.32 222.28-.21 3.84-3.29 6.91-7.13 7.09-.26.01-9.56.45-25.4 1.02-29.76 1.08-82.61 2.6-142.05 2.6-91.09 0-166.7-3.58-167.45-3.62-3.85-.18-6.93-3.25-7.13-7.09-.01-.21-1.12-21.08-2.3-54.73-.01-.04-.01-.08-.01-.13l-3.02-167.29v-.13c0-120.91 5.28-221.28 5.33-222.28.2-3.84 3.28-6.91 7.13-7.09.75-.04 76.36-3.62 167.45-3.62 26.62 0 36.28.31 49.64.73 5.29.17 11.21.36 19.04.55l10.45 10.45 98.23 98.19c.22 6.98.45 13.46.66 19.72 1.01 29.12 1.88 54.28 1.88 103.35z" fill="#e1fff8"/><path d="m430.78 232.99c0 120.91-5.27 221.28-5.32 222.28-.21 3.84-3.29 6.91-7.13 7.09-.26.01-9.56.45-25.4 1.02 7.2-232.61-.08-352.29-.08-352.29-22.34-38.25-50.73-81.26-62.84-99.36l98.23 98.19c.22 6.98.45 13.46.66 19.72 1.01 29.12 1.88 54.28 1.88 103.35z" fill="#c5deed"/><path d="m428.24 109.92c-12.09.59-24.06.96-35.39 1.18-29.01.54-53.82.1-65.76-.19-4.3-.11-7.78-3.52-7.99-7.81-2.54-53.14.46-101.82.46-101.82 1.66.04 3.25.63 4.54 1.67 0 0 0 .01.02.02 1.44 1.18 57.91 47.32 102.45 102.48 1.03 1.27 1.61 2.84 1.67 4.47z" fill="#97b3bf"/><g fill="#ff8f8f"><path d="m233.005 62.546h-92.783c-4.142 0-7.5 3.358-7.5 7.5s3.358 7.5 7.5 7.5h92.783c4.142 0 7.5-3.358 7.5-7.5s-3.358-7.5-7.5-7.5z"/><path d="m203.005 117.546h-62.783c-4.142 0-7.5 3.358-7.5 7.5s3.358 7.5 7.5 7.5h62.783c4.142 0 7.5-3.358 7.5-7.5s-3.358-7.5-7.5-7.5z"/></g><path d="m356.22 316.57c0 41.84-1.21 76.75-1.39 81.56v.04c.13 4.05-2.97 7.47-7.02 7.72-.26.01-10.02.6-26.48 1.33-27.7 1.22-74.37 2.85-126.61 2.85-83.27 0-152.41-4.14-153.1-4.18-4.04-.25-7.16-3.67-7.04-7.72 0-.09.01-.18.01-.27-.2-5.61-1.37-40.1-1.37-81.33 0-44.85 1.35-81.74 1.36-82.1.15-3.86 3.19-6.98 7.04-7.21.69-.04 69.83-4.19 153.1-4.19 52.28 0 98.98 1.64 126.67 2.86 16.42.73 26.16 1.32 26.42 1.33 3.85.23 6.9 3.35 7.04 7.21.02.36 1.37 37.25 1.37 82.1z" fill="#ff8f8f"/><path d="m392.85 111.1c0-.01 0-.01 0-.01-28.9-49.48-67.93-106.93-68.73-108.12 1.44 1.18 57.91 47.32 102.45 102.48 1.03 1.27 1.61 2.84 1.67 4.47-12.09.59-24.06.96-35.39 1.18z" fill="#708ea0"/><g fill="#db5e7f"><path d="m356.22 316.57c0 41.84-1.21 76.75-1.39 81.56v.04c.13 4.05-2.97 7.47-7.02 7.72-.26.01-10.02.6-26.48 1.33 2.72-77.88.86-155.03.06-181.29 16.42.73 26.16 1.32 26.42 1.33 3.85.23 6.9 3.35 7.04 7.21.02.36 1.37 37.25 1.37 82.1z"/><path d="m478.78 330.18c0 93.57-5.11 171.26-5.16 172.03-.25 3.83-3.36 6.85-7.2 7-.24.01-8.21.31-21.91.7 12.51-161.46 5.71-326.45 4.13-359.35 11.24.35 17.69.59 17.79.6 3.83.14 6.94 3.16 7.19 6.99.05.77 5.16 78.46 5.16 172.03z"/></g></g><g fill="#fff"><path d="m98.329 267.895c-4.142 0-7.5 3.358-7.5 7.5v82.349c0 4.142 3.358 7.5 7.5 7.5s7.5-3.358 7.5-7.5v-29.065h24.496c11.738 0 21.287-9.549 21.287-21.287v-18.209c0-11.737-9.549-21.287-21.287-21.287h-31.996zm38.282 21.287v18.209c0 3.467-2.82 6.287-6.287 6.287h-24.496v-30.783h24.496c3.467.001 6.287 2.821 6.287 6.287z"/><path d="m291.111 282.896c4.142 0 7.5-3.358 7.5-7.5s-3.358-7.5-7.5-7.5h-39.783c-4.142 0-7.5 3.358-7.5 7.5v82.349c0 4.142 3.358 7.5 7.5 7.5s7.5-3.358 7.5-7.5v-29.065h32.283c4.142 0 7.5-3.358 7.5-7.5s-3.358-7.5-7.5-7.5h-32.283v-30.783h32.283z"/><path d="m205.089 365.245c12.299 0 22.305-10.006 22.305-22.305v-52.74c0-12.299-10.006-22.305-22.305-22.305h-30.978c-4.142 0-7.5 3.358-7.5 7.5v82.349c0 4.142 3.358 7.5 7.5 7.5h30.978zm-23.478-82.349h23.478c4.028 0 7.305 3.277 7.305 7.304v52.74c0 4.027-3.277 7.304-7.305 7.304h-23.478z"/></g></svg>